# xmcd
#
# Track frame offsets:
# 150
# 18580
# 28447
# 41687
# 57175
# 67042
# 78417
# 91982
# 105322
# 117832
# 129565
# 147210
# 166462
# 176287
# 194457
# 208987
# 219237
#
# Disc length: 3158 seconds
#
#
# Revision: 0
# Processed by: cddbd v1.5.1PL0 Copyright (c) Steve Scherf et al.
# Submitted via: FreeRIP 2.51 
#
DISCID=f40c5411
DTITLE=Variés - Radio Country
DYEAR=1900
DGENRE=Country
TTITLE0=Marcel a chanter
TTITLE1=La fête en acadie
TTITLE2=Le party madelinot
TTITLE3=Enfin le samedi soir
TTITLE4=Un verre une bouteille
TTITLE5=Voyager est ma loi
TTITLE6=Mon amour mon ami
TTITLE7=Au jardin de mes rêves
TTITLE8=Un par un
TTITLE9=Demain j'aurai 20 ans
TTITLE10=Wue la lune est belle ce soir
TTITLE11=Ton enfant n'est pas le nôtre
TTITLE12=Demain nos coeur seront unis
TTITLE13=Mon amie l'hirondelle
TTITLE14=L'enfant de la débauche
TTITLE15=Danser sur du country
TTITLE16=Medley Valse
EXTD=
EXTT0=
EXTT1=
EXTT2=
EXTT3=
EXTT4=
EXTT5=
EXTT6=
EXTT7=
EXTT8=
EXTT9=
EXTT10=
EXTT11=
EXTT12=
EXTT13=
EXTT14=
EXTT15=
EXTT16=
PLAYORDER=
